<svg width="550" height="550" viewBox="0 0 550 550" fill="none" xmlns="http://www.w3.org/2000/svg">
<path d="M125 90H425C444.33 90 460 105.67 460 125V425C460 444.33 444.33 460 425 460H125C105.67 460 90 444.33 90 425V125C90 105.67 105.67 90 125 90Z" stroke="black" stroke-width="30"/>
<path d="M496.925 48.9523L505.819 56.9843C517.296 67.3488 518.197 85.0544 507.833 96.531L273.332 356.193C269.67 360.248 264.902 363.143 259.615 364.521L203.797 379.071L215.394 324.541C216.419 319.72 218.698 315.256 222.001 311.599L457.379 50.9659C467.743 39.4893 485.449 38.5878 496.925 48.9523Z" fill="#2D6A4F" stroke="black" stroke-width="30"/>
</svg>
